# xmcd
#
# Track frame offsets: 
#        150
#        15200
#        33570
#        55726
#        75308
#        93206
#        114917
#        133190
#        152111
#        172454
#
# Disc length: 2446 seconds
#
# Revision: 0
# Processed by: cddbd v1.5.2PL0 Copyright (c) Steve Scherf et al.
# Submitted via: ExactAudioCopy v0.95b1
#
DISCID=72098c0a
DTITLE=Various Artist - Live Your Life With Verve, These Are The Days
DYEAR=2004
DGENRE=Soul
TTITLE0=Jamie Cullum - These Are The Days
TTITLE1=Lizz Wright - Blue Rose
TTITLE2=Gerald Albright - Father's Lullaby
TTITLE3=Joshua Payne - Your Love, My Home
TTITLE4=Jonatha Brooke - It Matters Now
TTITLE5=Luther Vandross Tribute - Dance With My Father
TTITLE6=All Jarreau - Ac-cent-tchu-ate the Positive
TTITLE7=Katie Melua - The Closest Thing to Crazy
TTITLE8=Paul Brown - Moment by Moment
TTITLE9=Aaron Neville - Danny Boy
EXTD=
EXTT0=
EXTT1=
EXTT2=
EXTT3=
EXTT4=
EXTT5=
EXTT6=
EXTT7=
EXTT8=
EXTT9=
PLAYORDER=
